<svg xmlns="http://www.w3.org/2000/svg" xmlns:xlink="http://www.w3.org/1999/xlink" width="1024" zoomAndPan="magnify" viewBox="0 0 768 767.999994" height="1024" preserveAspectRatio="xMidYMid meet" version="1.0"><defs><clipPath id="b99fffb663"><path d="M 155.371094 163.097656 L 612.652344 163.097656 L 612.652344 604.859375 L 155.371094 604.859375 Z M 155.371094 163.097656 " clip-rule="nonzero"/></clipPath><clipPath id="6fd72c6bf8"><path d="M 350 228.261719 L 604 228.261719 L 604 604.859375 L 350 604.859375 Z M 350 228.261719 " clip-rule="nonzero"/></clipPath></defs><rect x="-76.8" width="921.6" fill="#ffffff" y="-76.799999" height="921.599993" fill-opacity="1"/><rect x="-76.8" width="921.6" fill="#144c5c" y="-76.799999" height="921.599993" fill-opacity="1"/><g clip-path="url(#b99fffb663)"><path fill="#fef6f0" d="M 612.648438 383.980469 C 612.648438 505.972656 510.285156 604.859375 384.011719 604.859375 C 257.734375 604.859375 155.371094 505.972656 155.371094 383.980469 C 155.371094 261.992188 257.734375 163.101562 384.011719 163.101562 C 510.285156 163.101562 612.648438 261.992188 612.648438 383.980469 " fill-opacity="1" fill-rule="nonzero"/></g><path fill="#f9efe8" d="M 322.382812 184.535156 L 317.945312 178.964844 C 308.617188 185.003906 303.972656 200.078125 296.824219 208.054688 C 301.25 213.621094 297.730469 218.453125 307.703125 219.34375 C 284.296875 225.574219 282.058594 241.367188 280.722656 257.039062 C 280.070312 264.886719 279.585938 272.683594 276.875 279.320312 C 274.160156 285.957031 269.125 291.386719 259.214844 294.441406 C 260.601562 291.371094 257.605469 284.757812 256.421875 287.160156 L 251.421875 311.390625 C 262.082031 314.390625 258.730469 311.398438 268.5625 310.523438 C 273.082031 316.058594 274.6875 324.324219 272.132812 329.675781 C 270.253906 316.839844 256.292969 322.207031 248.789062 323.796875 C 252.144531 324.53125 254.78125 327.558594 258.019531 328.664062 C 235.105469 331.617188 276.914062 340.003906 257.753906 349.804688 L 252.976562 346.527344 C 252.859375 353.558594 257.15625 362.121094 252.707031 367.644531 C 240.074219 364.820312 250.324219 358.976562 241.132812 354.128906 C 237.628906 363.210938 254.441406 381.589844 239.394531 384.171875 C 237.945312 378.9375 240.429688 373.566406 239.058594 368.363281 C 221.539062 370.644531 224.503906 373.277344 219.363281 378.707031 L 219.960938 378.21875 L 206.933594 390.246094 L 212.34375 388.167969 C 236.957031 413.152344 207.300781 413.113281 219.890625 437.042969 C 208.144531 414.027344 210.316406 429.667969 197.886719 422.523438 C 192.519531 424.625 185.792969 428.5 182.914062 425.160156 C 190.09375 437.039062 169.199219 433.03125 179.867188 450.03125 C 175.484375 448.535156 175.957031 457.339844 166.210938 450.894531 C 166.199219 451.027344 166.195312 451.140625 166.183594 451.261719 C 166.707031 452.839844 167.246094 454.410156 167.804688 455.972656 C 170.53125 456.914062 175.988281 453.097656 179.359375 455.308594 C 181.285156 460.46875 180.191406 464.605469 177.65625 468.378906 C 176.75 469.742188 175.644531 471.058594 174.425781 472.359375 C 180.535156 485.855469 187.988281 498.644531 196.640625 510.570312 L 215.476562 512.914062 L 203.308594 504.894531 C 204.742188 503.015625 207.621094 499.320312 212.5 502.503906 C 207.113281 490.570312 206.203125 501.207031 199.820312 492.777344 C 216.300781 488.175781 207.117188 462.425781 228.992188 469.824219 C 220.75 461.609375 216.839844 475.882812 214.949219 461.9375 C 238.769531 469.292969 216.917969 447.75 231.476562 443.351562 C 241.707031 451.5625 231.527344 457.394531 246.121094 453.023438 C 229.203125 438.375 258.753906 437.164062 258.632812 427.691406 C 243.28125 420.046875 260.027344 407.832031 260.929688 392.410156 C 265.699219 395.660156 281.046875 372.082031 292.378906 362.722656 L 294.808594 364.316406 C 280.273438 354.542969 289.15625 343.53125 290.242188 332.953125 C 299.425781 337.777344 302.339844 341.171875 304.191406 348.0625 L 308.175781 339.542969 C 304.121094 335.140625 302.746094 331.230469 303.589844 324.867188 L 314.246094 332.597656 C 319.015625 321.015625 311.324219 303.21875 326.144531 292.476562 C 315.664062 286.394531 290.214844 289.386719 290.441406 270.519531 C 296.351562 272.703125 306.113281 276.753906 307.28125 281.65625 C 306.820312 279.546875 305.164062 275.078125 308.589844 273.785156 L 315.5 284.695312 C 323.0625 280.199219 308.914062 277.246094 312.40625 272.410156 C 320.746094 276.574219 320.296875 271.402344 326.585938 275.382812 C 326.738281 277.125 320.878906 278.308594 323.183594 281.921875 C 327.585938 276.699219 336.054688 271.917969 343.566406 272.628906 C 338.546875 270.832031 332.277344 267.148438 333.316406 262.265625 C 338.191406 250.710938 345.273438 263.3125 352.785156 258.851562 C 348.289062 253.292969 357.816406 249.054688 345.390625 242.757812 C 347.0625 239.492188 353.195312 241.734375 357.199219 242.117188 C 354.523438 233.601562 368.886719 214.152344 352.386719 214.1875 L 350.777344 215.25 C 350.65625 214.847656 350.804688 214.507812 350.699219 214.03125 C 350.671875 214.078125 350.699219 214.03125 350.671875 214.078125 C 350.699219 214.03125 350.671875 214.078125 350.699219 214.03125 C 347.863281 191.554688 371.128906 180.488281 379.128906 163.160156 C 360.113281 163.546875 341.664062 166.175781 324.0625 170.789062 C 323.609375 175.160156 323.085938 179.742188 322.382812 184.535156 " fill-opacity="1" fill-rule="nonzero"/><g clip-path="url(#6fd72c6bf8)"><path fill="#f9efe8" d="M 507.808594 308.96875 C 505.832031 305.203125 501.820312 302.804688 503.734375 299.621094 C 489.90625 300.878906 488.351562 325.019531 496.289062 329.75 C 492.410156 334.339844 488.363281 326.761719 482.464844 327.558594 C 472.636719 331.195312 484.824219 352.238281 472.972656 350.351562 C 471.738281 350.175781 471.242188 348.707031 471.035156 347.21875 C 470.199219 354.699219 458.957031 365.597656 471.382812 367.519531 C 458.910156 376.808594 462.921875 394.085938 450.578125 400.132812 C 459.609375 413.792969 432.382812 417.863281 449.1875 430.101562 C 431.128906 418.6875 421.789062 443.316406 426.195312 456.140625 C 422.050781 450.339844 416.539062 459.695312 410.484375 452.230469 C 405.71875 461.359375 404.570312 471.53125 415.007812 475.332031 C 383.472656 479.40625 414.371094 518.578125 380.578125 511.949219 C 379.351562 520.015625 378 527.839844 376.511719 535.449219 C 375.046875 543.070312 373.507812 550.507812 371.804688 557.75 C 368.417969 572.230469 364.511719 585.972656 360.097656 599.203125 C 341.917969 588.105469 372.84375 571.578125 352.707031 561.835938 C 350.019531 576.769531 351.484375 590.128906 350.507812 602.496094 C 361.441406 604.046875 372.628906 604.859375 384.011719 604.859375 C 404.59375 604.859375 424.535156 602.21875 443.511719 597.289062 C 445.609375 593.269531 450.453125 589.375 450.21875 584.179688 C 458.050781 589.296875 463.203125 586.894531 469.820312 586.96875 C 463.585938 583.949219 478.484375 572.769531 463.234375 561.921875 L 478.90625 559.035156 C 492.246094 545.480469 465.957031 527.8125 477.351562 513.933594 C 483.589844 523.527344 493.261719 519.761719 493.8125 533.613281 C 496.769531 528.519531 500.839844 524.734375 495.257812 521.496094 C 502.019531 521.347656 492.289062 501.085938 502.648438 500.691406 C 500.292969 496.515625 492.191406 491.015625 496.09375 485.617188 C 497.277344 485.792969 498.445312 486.554688 499.210938 487.148438 C 496.59375 483.992188 498.71875 475.792969 487.902344 475.761719 C 505.058594 475.007812 510.875 463.730469 516.109375 452.441406 C 521.339844 441.15625 525.992188 429.859375 540.746094 429.1875 C 544.398438 416.464844 549.476562 401.503906 554.671875 391.015625 C 556.71875 393.058594 558.679688 393.367188 556.75 394.800781 C 572.3125 385.179688 538.53125 372.878906 556.125 361.832031 C 573.867188 361.265625 558.285156 374.328125 566.15625 372.128906 C 593.976562 385.277344 573.644531 350.90625 595.320312 349.214844 L 595.386719 352.703125 C 606.875 350.269531 600.203125 333.914062 603.347656 321.476562 C 592.507812 285.921875 572.667969 254.097656 546.359375 228.464844 C 542.195312 237.832031 536.859375 246.550781 531.445312 255.207031 C 521.09375 272.015625 510.480469 288.566406 507.808594 308.96875 " fill-opacity="1" fill-rule="nonzero"/></g><path fill="#144c5c" d="M 526.957031 339.824219 C 526.957031 369.292969 503.070312 393.179688 473.601562 393.179688 C 444.132812 393.179688 420.246094 369.292969 420.246094 339.824219 C 420.246094 310.359375 444.132812 286.46875 473.601562 286.46875 C 503.070312 286.46875 526.957031 310.359375 526.957031 339.824219 " fill-opacity="1" fill-rule="nonzero"/></svg>